<?xml version="1.0" encoding="utf-8"?>
<!-- Generator: Adobe Illustrator 23.0.2, SVG Export Plug-In . SVG Version: 6.00 Build 0)  -->
<svg version="1.1" id="Layer_1" xmlns="http://www.w3.org/2000/svg" xmlns:xlink="http://www.w3.org/1999/xlink" x="0px" y="0px"
	 viewBox="0 0 600 125" style="enable-background:new 0 0 600 125;" xml:space="preserve">
<g>
	<g>
		<path d="M20.21,67.29H5.98c-1.16,0-2.01-0.26-2.52-0.79c-0.52-0.52-0.78-1.37-0.78-2.54V4.08c0-1.17,0.26-2.02,0.78-2.54
			c0.52-0.52,1.36-0.79,2.52-0.79h14.23c1.16,0,2,0.26,2.52,0.79c0.52,0.52,0.78,1.37,0.78,2.54v21.25h3.67l9.45-21.53
			c0.43-1.11,1.01-1.9,1.74-2.36c0.74-0.46,1.68-0.69,2.85-0.69h14.14c1.04,0,1.74,0.26,2.11,0.79c0.37,0.52,0.34,1.28-0.09,2.26
			l-9.36,21.53c3.43,0.18,6.16,1.4,8.22,3.65c2.05,2.25,3.08,5.22,3.08,8.92v26.06c0,1.17-0.26,2.02-0.78,2.54
			c-0.52,0.52-1.36,0.79-2.52,0.79H41.88c-1.16,0-2.01-0.26-2.52-0.79c-0.52-0.52-0.78-1.37-0.78-2.54V45.95
			c0-0.98-0.25-1.76-0.73-2.31c-0.49-0.55-1.22-0.83-2.2-0.83H23.52v21.16c0,1.17-0.26,2.02-0.78,2.54
			C22.22,67.03,21.37,67.29,20.21,67.29z"/>
		<path d="M117.06,67.29H74.46c-1.16,0-2.01-0.26-2.52-0.79c-0.52-0.52-0.78-1.37-0.78-2.54V4.08c0-1.17,0.26-2.02,0.78-2.54
			c0.52-0.52,1.36-0.79,2.52-0.79h42.59c1.16,0,2,0.26,2.52,0.79c0.52,0.52,0.78,1.37,0.78,2.54V14.9c0,1.17-0.26,2.02-0.78,2.54
			c-0.52,0.52-1.36,0.78-2.52,0.78H91.72v7.12h17.9c1.16,0,2,0.26,2.52,0.79c0.52,0.52,0.78,1.37,0.78,2.54v9.89
			c0,1.17-0.26,2.02-0.78,2.54c-0.52,0.52-1.36,0.79-2.52,0.79h-17.9v7.95h25.34c1.16,0,2,0.26,2.52,0.78
			c0.52,0.52,0.78,1.37,0.78,2.54v10.81c0,1.17-0.26,2.02-0.78,2.54C119.06,67.03,118.22,67.29,117.06,67.29z"/>
		<path d="M170.3,67.29h-23.87c-1.16,0-2.13-0.21-2.89-0.65c-0.77-0.43-1.36-1.23-1.79-2.4l-9-22.64c-0.55-1.35-1.01-2.54-1.38-3.56
			c-0.37-1.02-0.67-1.99-0.92-2.91c-0.25-0.92-0.41-1.89-0.5-2.91c-0.09-1.02-0.14-2.26-0.14-3.74V4.08c0-1.17,0.26-2.02,0.78-2.54
			c0.52-0.52,1.36-0.79,2.52-0.79h14.6c1.16,0,2.05,0.26,2.66,0.79c0.61,0.52,0.92,1.37,0.92,2.54v25.51c0,0.62,0.06,1.23,0.18,1.85
			c0.12,0.62,0.31,1.26,0.55,1.94l4.31,12.94c0.18,0.62,0.4,1.03,0.64,1.25c0.24,0.22,0.61,0.32,1.1,0.32h1.01
			c0.49,0,0.86-0.11,1.1-0.32c0.24-0.22,0.46-0.63,0.64-1.25l4.31-13.03c0.24-0.68,0.43-1.32,0.55-1.94
			c0.12-0.61,0.18-1.23,0.18-1.85V4.08c0-1.17,0.26-2.02,0.78-2.54c0.52-0.52,1.36-0.79,2.52-0.79h14.41c1.16,0,2,0.26,2.52,0.79
			c0.52,0.52,0.78,1.37,0.78,2.54v24.4c0,1.48-0.05,2.73-0.14,3.74c-0.09,1.02-0.26,1.99-0.5,2.91c-0.25,0.92-0.55,1.9-0.92,2.91
			c-0.37,1.02-0.83,2.2-1.38,3.56l-9,22.64c-0.43,1.17-1.03,1.97-1.79,2.4C172.42,67.08,171.46,67.29,170.3,67.29z"/>
		<path d="M200.04,67.29c-1.16,0-2.01-0.26-2.52-0.79c-0.52-0.52-0.78-1.37-0.78-2.54v-11c0-1.17,0.26-2.02,0.78-2.54
			c0.52-0.52,1.36-0.79,2.52-0.79h9.09V18.59h-9.09c-1.16,0-2.01-0.26-2.52-0.79c-0.52-0.52-0.78-1.37-0.78-2.54V4.08
			c0-1.17,0.26-2.02,0.78-2.54c0.52-0.52,1.36-0.79,2.52-0.79h39.11c1.16,0,2,0.26,2.52,0.79c0.52,0.52,0.78,1.37,0.78,2.54v11.18
			c0,1.17-0.26,2.02-0.78,2.54c-0.52,0.52-1.36,0.79-2.52,0.79h-8.9v31.05h8.9c1.16,0,2,0.26,2.52,0.79
			c0.52,0.52,0.78,1.37,0.78,2.54v11c0,1.17-0.26,2.02-0.78,2.54c-0.52,0.52-1.36,0.79-2.52,0.79H200.04z"/>
		<path d="M270.81,67.29h-13.77c-1.16,0-2.01-0.26-2.52-0.79c-0.52-0.52-0.78-1.37-0.78-2.54V4.08c0-1.17,0.26-2.02,0.78-2.54
			c0.52-0.52,1.36-0.79,2.52-0.79h9.55c1.16,0,2.16,0.18,2.98,0.55c0.83,0.37,1.64,1.02,2.43,1.94l17.81,20.52V4.08
			c0-1.17,0.26-2.02,0.78-2.54c0.52-0.52,1.36-0.79,2.52-0.79h13.77c1.16,0,2,0.26,2.52,0.79c0.52,0.52,0.78,1.37,0.78,2.54v59.88
			c0,1.17-0.26,2.02-0.78,2.54c-0.52,0.52-1.36,0.79-2.52,0.79h-13.77c-1.16,0-2.01-0.26-2.52-0.79c-0.52-0.52-0.78-1.37-0.78-2.54
			V52.6l-15.7-19.13v30.5c0,1.17-0.26,2.02-0.78,2.54C272.82,67.03,271.98,67.29,270.81,67.29z"/>
		<path d="M361.05,67.29h-14.23c-1.17,0-2.01-0.26-2.53-0.79c-0.52-0.52-0.78-1.37-0.78-2.54V4.08c0-1.17,0.26-2.02,0.78-2.54
			c0.52-0.52,1.36-0.79,2.53-0.79h14.23c1.16,0,2,0.26,2.53,0.79c0.52,0.52,0.78,1.37,0.78,2.54v20.05h15.33V4.08
			c0-1.17,0.26-2.02,0.78-2.54c0.52-0.52,1.36-0.79,2.52-0.79h14.23c1.16,0,2,0.26,2.52,0.79c0.52,0.52,0.78,1.37,0.78,2.54v59.88
			c0,1.17-0.26,2.02-0.78,2.54c-0.52,0.52-1.36,0.79-2.52,0.79h-14.23c-1.16,0-2-0.26-2.52-0.79c-0.52-0.52-0.78-1.37-0.78-2.54
			V43.45h-15.33v20.52c0,1.17-0.26,2.02-0.78,2.54C363.05,67.03,362.21,67.29,361.05,67.29z"/>
		<path d="M446.69,67.29h-14.87c-1.16,0-2.01-0.26-2.52-0.79c-0.52-0.52-0.78-1.37-0.78-2.54V52.14l-14.05-18.94
			c-1.41-1.91-2.34-3.57-2.8-4.99c-0.46-1.42-0.69-3.54-0.69-6.38V4.08c0-1.17,0.26-2.02,0.78-2.54c0.52-0.52,1.36-0.79,2.52-0.79
			h14.14c1.16,0,2,0.26,2.52,0.79c0.52,0.52,0.78,1.37,0.78,2.54v15.15c0,0.62,0.03,1.26,0.09,1.94c0.06,0.68,0.31,1.32,0.73,1.94
			l4.22,6.65c0.31,0.55,0.63,0.96,0.96,1.2c0.33,0.25,0.75,0.37,1.24,0.37h0.92c0.49,0,0.9-0.12,1.24-0.37
			c0.33-0.25,0.66-0.65,0.96-1.2l4.22-6.65c0.43-0.62,0.67-1.26,0.73-1.94c0.06-0.68,0.09-1.32,0.09-1.94V4.08
			c0-1.17,0.26-2.02,0.78-2.54c0.52-0.52,1.36-0.79,2.53-0.79h13.68c1.16,0,2,0.26,2.53,0.79c0.52,0.52,0.78,1.37,0.78,2.54v17.74
			c0,2.83-0.25,4.96-0.74,6.38c-0.49,1.42-1.41,3.08-2.75,4.99L450,52.23v11.74c0,1.17-0.26,2.02-0.78,2.54
			C448.7,67.03,447.86,67.29,446.69,67.29z"/>
		<path d="M512.15,67.29h-30.94c-1.17,0-2.01-0.26-2.53-0.79c-0.52-0.52-0.78-1.37-0.78-2.54V4.08c0-1.17,0.26-2.02,0.78-2.54
			c0.52-0.52,1.36-0.79,2.53-0.79h30.94c7.65,0,13.32,1.54,17.03,4.62c3.7,3.08,5.55,7.82,5.55,14.23v28.83
			c0,6.41-1.85,11.15-5.55,14.23C525.47,65.75,519.8,67.29,512.15,67.29z M498.74,18.41v31.42h10.92c1.47,0,2.55-0.37,3.26-1.11
			c0.7-0.74,1.05-1.88,1.05-3.42V22.84c0-1.54-0.35-2.66-1.05-3.37c-0.7-0.71-1.79-1.06-3.26-1.06H498.74z"/>
		<path d="M592.28,67.29h-42.59c-1.17,0-2.01-0.26-2.53-0.79c-0.52-0.52-0.78-1.37-0.78-2.54V4.08c0-1.17,0.26-2.02,0.78-2.54
			c0.52-0.52,1.36-0.79,2.53-0.79h42.59c1.16,0,2,0.26,2.53,0.79c0.52,0.52,0.78,1.37,0.78,2.54V14.9c0,1.17-0.26,2.02-0.78,2.54
			c-0.52,0.52-1.36,0.78-2.53,0.78h-25.34v7.12h17.9c1.16,0,2,0.26,2.53,0.79c0.52,0.52,0.78,1.37,0.78,2.54v9.89
			c0,1.17-0.26,2.02-0.78,2.54c-0.52,0.52-1.36,0.79-2.53,0.79h-17.9v7.95h25.34c1.16,0,2,0.26,2.53,0.78
			c0.52,0.52,0.78,1.37,0.78,2.54v10.81c0,1.17-0.26,2.02-0.78,2.54C594.28,67.03,593.44,67.29,592.28,67.29z"/>
	</g>
	<g>
		<path d="M20.18,119.49H4.12c-0.6,0-1.04-0.14-1.31-0.41c-0.27-0.27-0.4-0.71-0.4-1.32v-31.1c0-0.61,0.13-1.05,0.4-1.32
			c0.27-0.27,0.71-0.41,1.31-0.41h16.07c3.97,0,6.92,0.8,8.84,2.4c1.92,1.6,2.88,4.06,2.88,7.39v14.98c0,3.33-0.96,5.79-2.88,7.39
			C27.1,118.69,24.15,119.49,20.18,119.49z M13.22,94.1v16.32h5.67c0.76,0,1.33-0.19,1.69-0.58c0.36-0.38,0.55-0.98,0.55-1.78V96.4
			c0-0.8-0.18-1.38-0.55-1.75c-0.37-0.37-0.93-0.55-1.69-0.55H13.22z"/>
		<path d="M61.8,119.49H39.68c-0.6,0-1.04-0.14-1.31-0.41c-0.27-0.27-0.4-0.71-0.4-1.32v-31.1c0-0.61,0.13-1.05,0.4-1.32
			c0.27-0.27,0.71-0.41,1.31-0.41H61.8c0.6,0,1.04,0.14,1.31,0.41c0.27,0.27,0.41,0.71,0.41,1.32v5.62c0,0.61-0.14,1.05-0.41,1.32
			C62.84,93.87,62.4,94,61.8,94H48.64v3.7h9.3c0.6,0,1.04,0.14,1.31,0.41c0.27,0.27,0.41,0.71,0.41,1.32v5.13
			c0,0.61-0.14,1.05-0.41,1.32c-0.27,0.27-0.71,0.41-1.31,0.41h-9.3v4.13H61.8c0.6,0,1.04,0.14,1.31,0.41
			c0.27,0.27,0.41,0.71,0.41,1.32v5.62c0,0.61-0.14,1.05-0.41,1.32C62.84,119.35,62.4,119.49,61.8,119.49z"/>
		<path d="M89.45,119.49h-12.4c-0.6,0-1.1-0.11-1.5-0.34c-0.4-0.22-0.71-0.64-0.93-1.25l-4.67-11.76c-0.29-0.7-0.52-1.32-0.72-1.85
			c-0.19-0.53-0.35-1.03-0.48-1.51c-0.13-0.48-0.21-0.98-0.26-1.51c-0.05-0.53-0.07-1.18-0.07-1.94V86.66c0-0.61,0.13-1.05,0.4-1.32
			c0.27-0.27,0.71-0.41,1.31-0.41h7.58c0.6,0,1.06,0.14,1.38,0.41c0.32,0.27,0.48,0.71,0.48,1.32v13.25c0,0.32,0.03,0.64,0.1,0.96
			c0.06,0.32,0.16,0.66,0.29,1.01l2.24,6.72c0.1,0.32,0.21,0.54,0.33,0.65s0.32,0.17,0.57,0.17h0.52c0.25,0,0.44-0.06,0.57-0.17
			c0.13-0.11,0.24-0.33,0.33-0.65l2.24-6.77c0.13-0.35,0.22-0.69,0.29-1.01c0.06-0.32,0.1-0.64,0.1-0.96v-13.2
			c0-0.61,0.13-1.05,0.41-1.32c0.27-0.27,0.71-0.41,1.31-0.41h7.49c0.6,0,1.04,0.14,1.31,0.41c0.27,0.27,0.4,0.71,0.4,1.32v12.67
			c0,0.77-0.02,1.42-0.07,1.94c-0.05,0.53-0.14,1.03-0.26,1.51c-0.13,0.48-0.29,0.98-0.48,1.51c-0.19,0.53-0.43,1.14-0.72,1.85
			l-4.67,11.76c-0.22,0.61-0.53,1.02-0.93,1.25C90.56,119.38,90.06,119.49,89.45,119.49z"/>
		<path d="M127.79,119.49h-22.12c-0.6,0-1.04-0.14-1.31-0.41c-0.27-0.27-0.4-0.71-0.4-1.32v-31.1c0-0.61,0.13-1.05,0.4-1.32
			c0.27-0.27,0.71-0.41,1.31-0.41h22.12c0.6,0,1.04,0.14,1.31,0.41c0.27,0.27,0.41,0.71,0.41,1.32v5.62c0,0.61-0.14,1.05-0.41,1.32
			S128.39,94,127.79,94h-13.16v3.7h9.3c0.6,0,1.04,0.14,1.31,0.41c0.27,0.27,0.41,0.71,0.41,1.32v5.13c0,0.61-0.14,1.05-0.41,1.32
			c-0.27,0.27-0.71,0.41-1.31,0.41h-9.3v4.13h13.16c0.6,0,1.04,0.14,1.31,0.41c0.27,0.27,0.41,0.71,0.41,1.32v5.62
			c0,0.61-0.14,1.05-0.41,1.32S128.39,119.49,127.79,119.49z"/>
		<path d="M161.11,119.49h-24.27c-0.6,0-1.04-0.14-1.31-0.41c-0.27-0.27-0.4-0.71-0.4-1.32v-31.1c0-0.61,0.13-1.05,0.4-1.32
			c0.27-0.27,0.71-0.41,1.31-0.41h7.39c0.6,0,1.04,0.14,1.31,0.41c0.27,0.27,0.41,0.71,0.41,1.32v23.76h6.53v-7.78
			c0-0.61,0.13-1.05,0.4-1.32c0.27-0.27,0.71-0.41,1.31-0.41h6.91c0.6,0,1.04,0.14,1.31,0.41s0.41,0.71,0.41,1.32v15.12
			c0,0.61-0.14,1.05-0.41,1.32S161.71,119.49,161.11,119.49z"/>
		<path d="M197.34,110.42c0,1.47-0.21,2.81-0.64,4.01c-0.43,1.2-1.19,2.22-2.29,3.07c-1.1,0.85-2.61,1.51-4.53,1.99
			c-1.92,0.48-4.36,0.72-7.32,0.72c-2.96,0-5.4-0.24-7.34-0.72c-1.94-0.48-3.46-1.14-4.55-1.99c-1.1-0.85-1.86-1.87-2.29-3.07
			c-0.43-1.2-0.64-2.54-0.64-4.01V94.05c0-1.47,0.21-2.81,0.64-4.01c0.43-1.2,1.19-2.23,2.29-3.1c1.1-0.86,2.61-1.54,4.55-2.02
			c1.94-0.48,4.39-0.72,7.34-0.72c2.96,0,5.39,0.24,7.32,0.72c1.92,0.48,3.43,1.15,4.53,2.02c1.1,0.86,1.86,1.9,2.29,3.1
			c0.43,1.2,0.64,2.54,0.64,4.01V110.42z M178.56,108.69c0,0.64,0.24,1.18,0.72,1.61c0.48,0.43,1.57,0.65,3.29,0.65
			c1.72,0,2.81-0.22,3.29-0.65c0.48-0.43,0.72-0.97,0.72-1.61V95.78c0-0.61-0.24-1.13-0.72-1.56c-0.48-0.43-1.57-0.65-3.29-0.65
			c-1.72,0-2.81,0.22-3.29,0.65c-0.48,0.43-0.72,0.95-0.72,1.56V108.69z"/>
		<path d="M212.5,119.49h-7.39c-0.6,0-1.04-0.14-1.31-0.41c-0.27-0.27-0.4-0.71-0.4-1.32v-31.1c0-0.61,0.13-1.05,0.4-1.32
			c0.27-0.27,0.71-0.41,1.31-0.41h14.59c4.32,0,7.28,0.86,8.87,2.59c1.59,1.73,2.38,3.98,2.38,6.77v6.14c0,2.78-0.8,5.04-2.38,6.77
			c-1.59,1.73-4.55,2.59-8.87,2.59h-5.48v7.97c0,0.61-0.14,1.05-0.41,1.32C213.54,119.35,213.11,119.49,212.5,119.49z M214.12,93.91
			v7.25h4.29c0.92,0,1.52-0.24,1.81-0.72c0.29-0.48,0.43-1.02,0.43-1.63v-2.54c0-0.61-0.14-1.15-0.43-1.63
			c-0.29-0.48-0.89-0.72-1.81-0.72H214.12z"/>
		<path d="M259.75,119.49h-22.12c-0.6,0-1.04-0.14-1.31-0.41c-0.27-0.27-0.4-0.71-0.4-1.32v-31.1c0-0.61,0.13-1.05,0.4-1.32
			c0.27-0.27,0.71-0.41,1.31-0.41h22.12c0.6,0,1.04,0.14,1.31,0.41c0.27,0.27,0.41,0.71,0.41,1.32v5.62c0,0.61-0.14,1.05-0.41,1.32
			S260.35,94,259.75,94h-13.16v3.7h9.3c0.6,0,1.04,0.14,1.31,0.41c0.27,0.27,0.41,0.71,0.41,1.32v5.13c0,0.61-0.14,1.05-0.41,1.32
			c-0.27,0.27-0.71,0.41-1.31,0.41h-9.3v4.13h13.16c0.6,0,1.04,0.14,1.31,0.41c0.27,0.27,0.41,0.71,0.41,1.32v5.62
			c0,0.61-0.14,1.05-0.41,1.32S260.35,119.49,259.75,119.49z"/>
		<path d="M276.15,119.49h-7.34c-0.6,0-1.04-0.14-1.31-0.41c-0.27-0.27-0.4-0.71-0.4-1.32v-31.1c0-0.61,0.13-1.05,0.4-1.32
			c0.27-0.27,0.71-0.41,1.31-0.41h15.88c3.56,0,6.02,0.74,7.37,2.23c1.35,1.49,2.03,3.42,2.03,5.78v2.21c0,1.34-0.2,2.49-0.6,3.43
			c-0.4,0.94-1.09,1.62-2.07,2.04c1.72,0.19,3.11,0.9,4.17,2.11c1.06,1.22,1.6,2.83,1.6,4.85v10.17c0,0.61-0.14,1.05-0.41,1.32
			s-0.71,0.41-1.31,0.41h-7.39c-0.6,0-1.04-0.14-1.31-0.41s-0.4-0.71-0.4-1.32v-7.34c0-0.7-0.14-1.22-0.41-1.56s-0.74-0.5-1.41-0.5
			h-6.67v9.41c0,0.61-0.14,1.05-0.4,1.32C277.19,119.35,276.75,119.49,276.15,119.49z M277.87,93.57v6.14h3.58
			c0.83,0,1.38-0.22,1.67-0.65c0.29-0.43,0.43-0.97,0.43-1.61v-1.63c0-0.64-0.14-1.18-0.43-1.61c-0.29-0.43-0.84-0.65-1.67-0.65
			H277.87z"/>
		<path d="M310.29,122.08l5.72-39.74c0.06-0.61,0.21-1.05,0.45-1.32c0.24-0.27,0.66-0.41,1.26-0.41h6.91c0.6,0,1.06,0.14,1.36,0.41
			c0.31,0.27,0.42,0.71,0.36,1.32l-5.72,39.74c-0.07,0.61-0.22,1.05-0.46,1.32c-0.24,0.27-0.66,0.41-1.26,0.41H312
			c-0.6,0-1.06-0.14-1.36-0.41C310.34,123.13,310.22,122.69,310.29,122.08z"/>
		<path d="M358.29,119.49h-16.07c-0.6,0-1.04-0.14-1.31-0.41c-0.27-0.27-0.4-0.71-0.4-1.32v-31.1c0-0.61,0.13-1.05,0.4-1.32
			c0.27-0.27,0.71-0.41,1.31-0.41h16.07c3.97,0,6.92,0.8,8.84,2.4c1.92,1.6,2.88,4.06,2.88,7.39v14.98c0,3.33-0.96,5.79-2.88,7.39
			C365.21,118.69,362.27,119.49,358.29,119.49z M351.33,94.1v16.32H357c0.76,0,1.33-0.19,1.69-0.58c0.36-0.38,0.55-0.98,0.55-1.78
			V96.4c0-0.8-0.18-1.38-0.55-1.75c-0.37-0.37-0.93-0.55-1.69-0.55H351.33z"/>
		<path d="M399.91,119.49h-22.12c-0.6,0-1.04-0.14-1.31-0.41c-0.27-0.27-0.4-0.71-0.4-1.32v-31.1c0-0.61,0.13-1.05,0.4-1.32
			c0.27-0.27,0.71-0.41,1.31-0.41h22.12c0.6,0,1.04,0.14,1.31,0.41c0.27,0.27,0.4,0.71,0.4,1.32v5.62c0,0.61-0.13,1.05-0.4,1.32
			c-0.27,0.27-0.71,0.41-1.31,0.41h-13.16v3.7h9.3c0.6,0,1.04,0.14,1.31,0.41c0.27,0.27,0.4,0.71,0.4,1.32v5.13
			c0,0.61-0.13,1.05-0.4,1.32c-0.27,0.27-0.71,0.41-1.31,0.41h-9.3v4.13h13.16c0.6,0,1.04,0.14,1.31,0.41
			c0.27,0.27,0.4,0.71,0.4,1.32v5.62c0,0.61-0.13,1.05-0.4,1.32C400.95,119.35,400.52,119.49,399.91,119.49z"/>
		<path d="M423.18,119.49h-15.06c-0.61,0-1.04-0.14-1.31-0.41c-0.27-0.27-0.41-0.71-0.41-1.32v-5.62c0-0.61,0.13-1.05,0.41-1.32
			c0.27-0.27,0.71-0.41,1.31-0.41h12.82c0.41,0,0.72-0.14,0.93-0.41c0.21-0.27,0.31-0.6,0.31-0.98c0-0.54-0.1-0.94-0.31-1.2
			c-0.21-0.26-0.52-0.4-0.93-0.43l-7.15-1.01c-2.22-0.32-4.01-1.06-5.36-2.21c-1.35-1.15-2.03-3.07-2.03-5.76v-5.04
			c0-2.72,0.87-4.81,2.62-6.26c1.75-1.46,4.16-2.18,7.24-2.18h13.35c0.61,0,1.04,0.14,1.31,0.41c0.27,0.27,0.41,0.71,0.41,1.32v5.71
			c0,0.61-0.13,1.05-0.41,1.32c-0.27,0.27-0.71,0.41-1.31,0.41h-11.11c-0.41,0-0.73,0.14-0.95,0.41c-0.22,0.27-0.33,0.62-0.33,1.03
			c0,0.42,0.11,0.77,0.33,1.06s0.54,0.45,0.95,0.48l7.1,0.96c2.22,0.32,4.02,1.06,5.39,2.21c1.37,1.15,2.05,3.07,2.05,5.76v5.04
			c0,2.72-0.88,4.81-2.65,6.26C428.64,118.76,426.23,119.49,423.18,119.49z"/>
		<path d="M439.2,119.49c-0.6,0-1.04-0.14-1.31-0.41c-0.27-0.27-0.41-0.71-0.41-1.32v-5.71c0-0.61,0.13-1.05,0.41-1.32
			c0.27-0.27,0.71-0.41,1.31-0.41h4.72V94.2h-4.72c-0.6,0-1.04-0.14-1.31-0.41c-0.27-0.27-0.41-0.71-0.41-1.32v-5.81
			c0-0.61,0.13-1.05,0.41-1.32c0.27-0.27,0.71-0.41,1.31-0.41h20.31c0.61,0,1.04,0.14,1.31,0.41c0.27,0.27,0.41,0.71,0.41,1.32v5.81
			c0,0.61-0.13,1.05-0.41,1.32c-0.27,0.27-0.71,0.41-1.31,0.41h-4.62v16.13h4.62c0.61,0,1.04,0.14,1.31,0.41
			c0.27,0.27,0.41,0.71,0.41,1.32v5.71c0,0.61-0.13,1.05-0.41,1.32c-0.27,0.27-0.71,0.41-1.31,0.41H439.2z"/>
		<path d="M493.31,119.49h-15.02c-3.97,0-6.92-0.8-8.84-2.4c-1.92-1.6-2.88-4.06-2.88-7.39V94.72c0-3.33,0.96-5.79,2.88-7.39
			c1.92-1.6,4.87-2.4,8.84-2.4h11.92c0.61,0,1.04,0.14,1.31,0.41c0.27,0.27,0.41,0.71,0.41,1.32v5.81c0,0.61-0.14,1.05-0.41,1.32
			c-0.27,0.27-0.71,0.41-1.31,0.41h-9.92c-0.99,0-1.71,0.2-2.19,0.6c-0.48,0.4-0.72,1-0.72,1.8v11.47c0,0.8,0.18,1.39,0.55,1.78
			c0.36,0.38,0.91,0.58,1.65,0.58h4.62v-7.49c0-0.61,0.13-1.05,0.41-1.32c0.27-0.27,0.71-0.41,1.31-0.41h7.39
			c0.61,0,1.04,0.14,1.31,0.41c0.27,0.27,0.41,0.71,0.41,1.32v14.83c0,0.61-0.13,1.05-0.41,1.32
			C494.35,119.35,493.91,119.49,493.31,119.49z"/>
		<path d="M509.71,119.49h-7.15c-0.6,0-1.04-0.14-1.31-0.41c-0.27-0.27-0.4-0.71-0.4-1.32v-31.1c0-0.61,0.13-1.05,0.4-1.32
			c0.27-0.27,0.71-0.41,1.31-0.41h4.96c0.61,0,1.12,0.1,1.55,0.29c0.43,0.19,0.85,0.53,1.26,1.01l9.25,10.66V86.66
			c0-0.61,0.13-1.05,0.4-1.32c0.27-0.27,0.71-0.41,1.31-0.41h7.15c0.6,0,1.04,0.14,1.31,0.41c0.27,0.27,0.4,0.71,0.4,1.32v31.1
			c0,0.61-0.13,1.05-0.4,1.32c-0.27,0.27-0.71,0.41-1.31,0.41h-7.15c-0.6,0-1.04-0.14-1.31-0.41c-0.27-0.27-0.4-0.71-0.4-1.32v-5.9
			l-8.15-9.94v15.84c0,0.61-0.14,1.05-0.41,1.32C510.75,119.35,510.31,119.49,509.71,119.49z"/>
		<path d="M560.58,119.49h-22.12c-0.6,0-1.04-0.14-1.31-0.41c-0.27-0.27-0.4-0.71-0.4-1.32v-31.1c0-0.61,0.13-1.05,0.4-1.32
			c0.27-0.27,0.71-0.41,1.31-0.41h22.12c0.6,0,1.04,0.14,1.31,0.41c0.27,0.27,0.4,0.71,0.4,1.32v5.62c0,0.61-0.13,1.05-0.4,1.32
			c-0.27,0.27-0.71,0.41-1.31,0.41h-13.16v3.7h9.3c0.6,0,1.04,0.14,1.31,0.41c0.27,0.27,0.4,0.71,0.4,1.32v5.13
			c0,0.61-0.13,1.05-0.4,1.32c-0.27,0.27-0.71,0.41-1.31,0.41h-9.3v4.13h13.16c0.6,0,1.04,0.14,1.31,0.41
			c0.27,0.27,0.4,0.71,0.4,1.32v5.62c0,0.61-0.13,1.05-0.4,1.32C561.62,119.35,561.18,119.49,560.58,119.49z"/>
		<path d="M576.98,119.49h-7.34c-0.6,0-1.04-0.14-1.31-0.41c-0.27-0.27-0.4-0.71-0.4-1.32v-31.1c0-0.61,0.13-1.05,0.4-1.32
			c0.27-0.27,0.71-0.41,1.31-0.41h15.88c3.56,0,6.02,0.74,7.37,2.23c1.35,1.49,2.03,3.42,2.03,5.78v2.21c0,1.34-0.2,2.49-0.59,3.43
			c-0.4,0.94-1.09,1.62-2.07,2.04c1.72,0.19,3.11,0.9,4.17,2.11c1.06,1.22,1.6,2.83,1.6,4.85v10.17c0,0.61-0.13,1.05-0.4,1.32
			c-0.27,0.27-0.71,0.41-1.31,0.41h-7.39c-0.61,0-1.04-0.14-1.31-0.41c-0.27-0.27-0.41-0.71-0.41-1.32v-7.34
			c0-0.7-0.13-1.22-0.4-1.56c-0.27-0.34-0.74-0.5-1.41-0.5h-6.68v9.41c0,0.61-0.13,1.05-0.4,1.32
			C578.02,119.35,577.58,119.49,576.98,119.49z M578.69,93.57v6.14h3.58c0.83,0,1.38-0.22,1.67-0.65c0.29-0.43,0.43-0.97,0.43-1.61
			v-1.63c0-0.64-0.14-1.18-0.43-1.61s-0.84-0.65-1.67-0.65H578.69z"/>
	</g>
</g>
</svg>
