<?xml version="1.0" encoding="utf-8"?>
<!-- Generator: Adobe Illustrator 23.0.4, SVG Export Plug-In . SVG Version: 6.00 Build 0)  -->
<svg version="1.1" id="Layer_1" xmlns="http://www.w3.org/2000/svg" xmlns:xlink="http://www.w3.org/1999/xlink" x="0px" y="0px"
	 viewBox="0 0 600 125" style="enable-background:new 0 0 600 125;" xml:space="preserve">
<style type="text/css">
	.st0{fill:#FFFFFF;}
</style>
<g>
	<g>
		<path class="st0" d="M20.2,67.3H6c-1.2,0-2-0.3-2.5-0.8C2.9,66,2.7,65.1,2.7,64V4.1c0-1.2,0.3-2,0.8-2.5S4.8,0.7,6,0.7h14.2
			c1.2,0,2,0.3,2.5,0.8c0.5,0.5,0.8,1.4,0.8,2.5v21.2h3.7l9.5-21.5c0.4-1.1,1-1.9,1.7-2.4c0.7-0.5,1.7-0.7,2.8-0.7h14.1
			c1,0,1.7,0.3,2.1,0.8c0.4,0.5,0.3,1.3-0.1,2.3L48,25.3c3.4,0.2,6.2,1.4,8.2,3.6c2,2.2,3.1,5.2,3.1,8.9V64c0,1.2-0.3,2-0.8,2.5
			C58,67,57.2,67.3,56,67.3H41.9c-1.2,0-2-0.3-2.5-0.8c-0.5-0.5-0.8-1.4-0.8-2.5v-18c0-1-0.2-1.8-0.7-2.3c-0.5-0.5-1.2-0.8-2.2-0.8
			H23.5V64c0,1.2-0.3,2-0.8,2.5C22.2,67,21.4,67.3,20.2,67.3z"/>
		<path class="st0" d="M117.1,67.3H74.5c-1.2,0-2-0.3-2.5-0.8c-0.5-0.5-0.8-1.4-0.8-2.5V4.1c0-1.2,0.3-2,0.8-2.5s1.4-0.8,2.5-0.8
			h42.6c1.2,0,2,0.3,2.5,0.8c0.5,0.5,0.8,1.4,0.8,2.5v10.8c0,1.2-0.3,2-0.8,2.5c-0.5,0.5-1.4,0.8-2.5,0.8H91.7v7.1h17.9
			c1.2,0,2,0.3,2.5,0.8c0.5,0.5,0.8,1.4,0.8,2.5v9.9c0,1.2-0.3,2-0.8,2.5s-1.4,0.8-2.5,0.8H91.7v8h25.3c1.2,0,2,0.3,2.5,0.8
			s0.8,1.4,0.8,2.5V64c0,1.2-0.3,2-0.8,2.5S118.2,67.3,117.1,67.3z"/>
		<path class="st0" d="M170.3,67.3h-23.9c-1.2,0-2.1-0.2-2.9-0.7c-0.8-0.4-1.4-1.2-1.8-2.4l-9-22.6c-0.6-1.3-1-2.5-1.4-3.6
			c-0.4-1-0.7-2-0.9-2.9s-0.4-1.9-0.5-2.9s-0.1-2.3-0.1-3.7V4.1c0-1.2,0.3-2,0.8-2.5s1.4-0.8,2.5-0.8h14.6c1.2,0,2.1,0.3,2.7,0.8
			c0.6,0.5,0.9,1.4,0.9,2.5v25.5c0,0.6,0.1,1.2,0.2,1.9s0.3,1.3,0.6,1.9l4.3,12.9c0.2,0.6,0.4,1,0.6,1.2s0.6,0.3,1.1,0.3h1
			c0.5,0,0.9-0.1,1.1-0.3c0.2-0.2,0.5-0.6,0.6-1.2l4.3-13c0.2-0.7,0.4-1.3,0.6-1.9c0.1-0.6,0.2-1.2,0.2-1.9V4.1c0-1.2,0.3-2,0.8-2.5
			s1.4-0.8,2.5-0.8h14.4c1.2,0,2,0.3,2.5,0.8c0.5,0.5,0.8,1.4,0.8,2.5v24.4c0,1.5-0.1,2.7-0.1,3.7c-0.1,1-0.3,2-0.5,2.9
			c-0.2,0.9-0.6,1.9-0.9,2.9c-0.4,1-0.8,2.2-1.4,3.6l-9,22.6c-0.4,1.2-1,2-1.8,2.4C172.4,67.1,171.5,67.3,170.3,67.3z"/>
		<path class="st0" d="M200,67.3c-1.2,0-2-0.3-2.5-0.8c-0.5-0.5-0.8-1.4-0.8-2.5V53c0-1.2,0.3-2,0.8-2.5s1.4-0.8,2.5-0.8h9.1v-31
			H200c-1.2,0-2-0.3-2.5-0.8c-0.5-0.5-0.8-1.4-0.8-2.5V4.1c0-1.2,0.3-2,0.8-2.5s1.4-0.8,2.5-0.8h39.1c1.2,0,2,0.3,2.5,0.8
			c0.5,0.5,0.8,1.4,0.8,2.5v11.2c0,1.2-0.3,2-0.8,2.5c-0.5,0.5-1.4,0.8-2.5,0.8h-8.9v31h8.9c1.2,0,2,0.3,2.5,0.8
			c0.5,0.5,0.8,1.4,0.8,2.5v11c0,1.2-0.3,2-0.8,2.5c-0.5,0.5-1.4,0.8-2.5,0.8L200,67.3L200,67.3z"/>
		<path class="st0" d="M270.8,67.3H257c-1.2,0-2-0.3-2.5-0.8c-0.5-0.5-0.8-1.4-0.8-2.5V4.1c0-1.2,0.3-2,0.8-2.5s1.4-0.8,2.5-0.8h9.5
			c1.2,0,2.2,0.2,3,0.6c0.8,0.4,1.6,1,2.4,1.9l17.8,20.5V4.1c0-1.2,0.3-2,0.8-2.5s1.4-0.8,2.5-0.8h13.8c1.2,0,2,0.3,2.5,0.8
			c0.5,0.5,0.8,1.4,0.8,2.5V64c0,1.2-0.3,2-0.8,2.5c-0.5,0.5-1.4,0.8-2.5,0.8h-13.8c-1.2,0-2-0.3-2.5-0.8c-0.5-0.5-0.8-1.4-0.8-2.5
			V52.6l-15.7-19.1V64c0,1.2-0.3,2-0.8,2.5C272.8,67,272,67.3,270.8,67.3z"/>
		<path class="st0" d="M361,67.3h-14.2c-1.2,0-2-0.3-2.5-0.8c-0.5-0.5-0.8-1.4-0.8-2.5V4.1c0-1.2,0.3-2,0.8-2.5s1.4-0.8,2.5-0.8H361
			c1.2,0,2,0.3,2.5,0.8c0.5,0.5,0.8,1.4,0.8,2.5v20h15.3v-20c0-1.2,0.3-2,0.8-2.5s1.4-0.8,2.5-0.8h14.2c1.2,0,2,0.3,2.5,0.8
			c0.5,0.5,0.8,1.4,0.8,2.5V64c0,1.2-0.3,2-0.8,2.5c-0.5,0.5-1.4,0.8-2.5,0.8H383c-1.2,0-2-0.3-2.5-0.8c-0.5-0.5-0.8-1.4-0.8-2.5
			V43.4h-15.3V64c0,1.2-0.3,2-0.8,2.5C363,67,362.2,67.3,361,67.3z"/>
		<path class="st0" d="M446.7,67.3h-14.9c-1.2,0-2-0.3-2.5-0.8c-0.5-0.5-0.8-1.4-0.8-2.5V52.1l-14-18.9c-1.4-1.9-2.3-3.6-2.8-5
			s-0.7-3.5-0.7-6.4V4.1c0-1.2,0.3-2,0.8-2.5s1.4-0.8,2.5-0.8h14.1c1.2,0,2,0.3,2.5,0.8c0.5,0.5,0.8,1.4,0.8,2.5v15.1
			c0,0.6,0,1.3,0.1,1.9s0.3,1.3,0.7,1.9l4.2,6.6c0.3,0.5,0.6,1,1,1.2c0.3,0.2,0.8,0.4,1.2,0.4h0.9c0.5,0,0.9-0.1,1.2-0.4
			c0.3-0.2,0.7-0.6,1-1.2l4.2-6.6c0.4-0.6,0.7-1.3,0.7-1.9s0.1-1.3,0.1-1.9V4.1c0-1.2,0.3-2,0.8-2.5s1.4-0.8,2.5-0.8h13.7
			c1.2,0,2,0.3,2.5,0.8c0.5,0.5,0.8,1.4,0.8,2.5v17.7c0,2.8-0.2,5-0.7,6.4c-0.5,1.4-1.4,3.1-2.8,5l-13.9,19V64c0,1.2-0.3,2-0.8,2.5
			C448.7,67,447.9,67.3,446.7,67.3z"/>
		<path class="st0" d="M512.2,67.3h-30.9c-1.2,0-2-0.3-2.5-0.8c-0.5-0.5-0.8-1.4-0.8-2.5V4.1c0-1.2,0.3-2,0.8-2.5s1.4-0.8,2.5-0.8
			h30.9c7.7,0,13.3,1.5,17,4.6c3.7,3.1,5.5,7.8,5.5,14.2v28.8c0,6.4-1.8,11.2-5.5,14.2C525.5,65.7,519.8,67.3,512.2,67.3z
			 M498.7,18.4v31.4h10.9c1.5,0,2.6-0.4,3.3-1.1c0.7-0.7,1-1.9,1-3.4V22.8c0-1.5-0.3-2.7-1-3.4s-1.8-1.1-3.3-1.1
			C509.7,18.4,498.7,18.4,498.7,18.4z"/>
		<path class="st0" d="M592.3,67.3h-42.6c-1.2,0-2-0.3-2.5-0.8c-0.5-0.5-0.8-1.4-0.8-2.5V4.1c0-1.2,0.3-2,0.8-2.5s1.4-0.8,2.5-0.8
			h42.6c1.2,0,2,0.3,2.5,0.8c0.5,0.5,0.8,1.4,0.8,2.5v10.8c0,1.2-0.3,2-0.8,2.5c-0.5,0.5-1.4,0.8-2.5,0.8h-25.3v7.1h17.9
			c1.2,0,2,0.3,2.5,0.8c0.5,0.5,0.8,1.4,0.8,2.5v9.9c0,1.2-0.3,2-0.8,2.5s-1.4,0.8-2.5,0.8h-17.9v8h25.3c1.2,0,2,0.3,2.5,0.8
			c0.5,0.5,0.8,1.4,0.8,2.5V64c0,1.2-0.3,2-0.8,2.5C594.3,67,593.4,67.3,592.3,67.3z"/>
	</g>
	<g>
		<path class="st0" d="M20.2,119.5H4.1c-0.6,0-1-0.1-1.3-0.4c-0.3-0.3-0.4-0.7-0.4-1.3V86.7c0-0.6,0.1-1.1,0.4-1.3s0.7-0.4,1.3-0.4
			h16.1c4,0,6.9,0.8,8.8,2.4s2.9,4.1,2.9,7.4v15c0,3.3-1,5.8-2.9,7.4C27.1,118.7,24.1,119.5,20.2,119.5z M13.2,94.1v16.3h5.7
			c0.8,0,1.3-0.2,1.7-0.6c0.4-0.4,0.5-1,0.5-1.8V96.4c0-0.8-0.2-1.4-0.5-1.8c-0.4-0.4-0.9-0.6-1.7-0.6H13.2z"/>
		<path class="st0" d="M61.8,119.5H39.7c-0.6,0-1-0.1-1.3-0.4c-0.3-0.3-0.4-0.7-0.4-1.3V86.7c0-0.6,0.1-1.1,0.4-1.3s0.7-0.4,1.3-0.4
			h22.1c0.6,0,1,0.1,1.3,0.4c0.3,0.3,0.4,0.7,0.4,1.3v5.6c0,0.6-0.1,1.1-0.4,1.3c-0.3,0.3-0.7,0.4-1.3,0.4H48.6v3.7h9.3
			c0.6,0,1,0.1,1.3,0.4c0.3,0.3,0.4,0.7,0.4,1.3v5.1c0,0.6-0.1,1.1-0.4,1.3s-0.7,0.4-1.3,0.4h-9.3v4.1h13.2c0.6,0,1,0.1,1.3,0.4
			c0.3,0.3,0.4,0.7,0.4,1.3v5.6c0,0.6-0.1,1.1-0.4,1.3C62.8,119.3,62.4,119.5,61.8,119.5z"/>
		<path class="st0" d="M89.4,119.5H77c-0.6,0-1.1-0.1-1.5-0.3c-0.4-0.2-0.7-0.6-0.9-1.2l-4.7-11.8c-0.3-0.7-0.5-1.3-0.7-1.8
			c-0.2-0.5-0.3-1-0.5-1.5c-0.1-0.5-0.2-1-0.3-1.5s-0.1-1.2-0.1-1.9V86.7c0-0.6,0.1-1.1,0.4-1.3c0.3-0.3,0.7-0.4,1.3-0.4h7.6
			c0.6,0,1.1,0.1,1.4,0.4c0.3,0.3,0.5,0.7,0.5,1.3v13.2c0,0.3,0,0.6,0.1,1c0.1,0.3,0.2,0.7,0.3,1l2.2,6.7c0.1,0.3,0.2,0.5,0.3,0.7
			s0.3,0.2,0.6,0.2h0.5c0.2,0,0.4-0.1,0.6-0.2s0.2-0.3,0.3-0.7l2.2-6.8c0.1-0.3,0.2-0.7,0.3-1c0.1-0.3,0.1-0.6,0.1-1V86.7
			c0-0.6,0.1-1.1,0.4-1.3c0.3-0.3,0.7-0.4,1.3-0.4h7.5c0.6,0,1,0.1,1.3,0.4c0.3,0.3,0.4,0.7,0.4,1.3v12.7c0,0.8,0,1.4-0.1,1.9
			c-0.1,0.5-0.1,1-0.3,1.5c-0.1,0.5-0.3,1-0.5,1.5s-0.4,1.1-0.7,1.8l-4.7,11.8c-0.2,0.6-0.5,1-0.9,1.2
			C90.6,119.4,90.1,119.5,89.4,119.5z"/>
		<path class="st0" d="M127.8,119.5h-22.1c-0.6,0-1-0.1-1.3-0.4c-0.3-0.3-0.4-0.7-0.4-1.3V86.7c0-0.6,0.1-1.1,0.4-1.3
			c0.3-0.3,0.7-0.4,1.3-0.4h22.1c0.6,0,1,0.1,1.3,0.4c0.3,0.3,0.4,0.7,0.4,1.3v5.6c0,0.6-0.1,1.1-0.4,1.3s-0.7,0.4-1.3,0.4h-13.2
			v3.7h9.3c0.6,0,1,0.1,1.3,0.4c0.3,0.3,0.4,0.7,0.4,1.3v5.1c0,0.6-0.1,1.1-0.4,1.3c-0.3,0.3-0.7,0.4-1.3,0.4h-9.3v4.1h13.2
			c0.6,0,1,0.1,1.3,0.4c0.3,0.3,0.4,0.7,0.4,1.3v5.6c0,0.6-0.1,1.1-0.4,1.3S128.4,119.5,127.8,119.5z"/>
		<path class="st0" d="M161.1,119.5h-24.3c-0.6,0-1-0.1-1.3-0.4c-0.3-0.3-0.4-0.7-0.4-1.3V86.7c0-0.6,0.1-1.1,0.4-1.3
			c0.3-0.3,0.7-0.4,1.3-0.4h7.4c0.6,0,1,0.1,1.3,0.4c0.3,0.3,0.4,0.7,0.4,1.3v23.8h6.5v-7.8c0-0.6,0.1-1.1,0.4-1.3
			c0.3-0.3,0.7-0.4,1.3-0.4h6.9c0.6,0,1,0.1,1.3,0.4s0.4,0.7,0.4,1.3v15.1c0,0.6-0.1,1.1-0.4,1.3S161.7,119.5,161.1,119.5z"/>
		<path class="st0" d="M197.3,110.4c0,1.5-0.2,2.8-0.6,4c-0.4,1.2-1.2,2.2-2.3,3.1c-1.1,0.8-2.6,1.5-4.5,2c-1.9,0.5-4.4,0.7-7.3,0.7
			s-5.4-0.2-7.3-0.7s-3.5-1.1-4.6-2c-1.1-0.8-1.9-1.9-2.3-3.1s-0.6-2.5-0.6-4V94c0-1.5,0.2-2.8,0.6-4c0.4-1.2,1.2-2.2,2.3-3.1
			c1.1-0.9,2.6-1.5,4.6-2c1.9-0.5,4.4-0.7,7.3-0.7c3,0,5.4,0.2,7.3,0.7c1.9,0.5,3.4,1.2,4.5,2c1.1,0.9,1.9,1.9,2.3,3.1
			s0.6,2.5,0.6,4V110.4z M178.6,108.7c0,0.6,0.2,1.2,0.7,1.6s1.6,0.7,3.3,0.7c1.7,0,2.8-0.2,3.3-0.7s0.7-1,0.7-1.6V95.8
			c0-0.6-0.2-1.1-0.7-1.6s-1.6-0.7-3.3-0.7c-1.7,0-2.8,0.2-3.3,0.7s-0.7,0.9-0.7,1.6V108.7z"/>
		<path class="st0" d="M212.5,119.5h-7.4c-0.6,0-1-0.1-1.3-0.4c-0.3-0.3-0.4-0.7-0.4-1.3V86.7c0-0.6,0.1-1.1,0.4-1.3
			c0.3-0.3,0.7-0.4,1.3-0.4h14.6c4.3,0,7.3,0.9,8.9,2.6c1.6,1.7,2.4,4,2.4,6.8v6.1c0,2.8-0.8,5-2.4,6.8c-1.6,1.7-4.6,2.6-8.9,2.6
			h-5.5v8c0,0.6-0.1,1.1-0.4,1.3C213.5,119.3,213.1,119.5,212.5,119.5z M214.1,93.9v7.2h4.3c0.9,0,1.5-0.2,1.8-0.7s0.4-1,0.4-1.6
			v-2.5c0-0.6-0.1-1.2-0.4-1.6c-0.3-0.5-0.9-0.7-1.8-0.7L214.1,93.9L214.1,93.9z"/>
		<path class="st0" d="M259.8,119.5h-22.1c-0.6,0-1-0.1-1.3-0.4c-0.3-0.3-0.4-0.7-0.4-1.3V86.7c0-0.6,0.1-1.1,0.4-1.3
			c0.3-0.3,0.7-0.4,1.3-0.4h22.1c0.6,0,1,0.1,1.3,0.4c0.3,0.3,0.4,0.7,0.4,1.3v5.6c0,0.6-0.1,1.1-0.4,1.3s-0.7,0.4-1.3,0.4h-13.2
			v3.7h9.3c0.6,0,1,0.1,1.3,0.4c0.3,0.3,0.4,0.7,0.4,1.3v5.1c0,0.6-0.1,1.1-0.4,1.3s-0.7,0.4-1.3,0.4h-9.3v4.1h13.2
			c0.6,0,1,0.1,1.3,0.4c0.3,0.3,0.4,0.7,0.4,1.3v5.6c0,0.6-0.1,1.1-0.4,1.3S260.4,119.5,259.8,119.5z"/>
		<path class="st0" d="M276.1,119.5h-7.3c-0.6,0-1-0.1-1.3-0.4c-0.3-0.3-0.4-0.7-0.4-1.3V86.7c0-0.6,0.1-1.1,0.4-1.3
			s0.7-0.4,1.3-0.4h15.9c3.6,0,6,0.7,7.4,2.2c1.4,1.5,2,3.4,2,5.8v2.2c0,1.3-0.2,2.5-0.6,3.4s-1.1,1.6-2.1,2
			c1.7,0.2,3.1,0.9,4.2,2.1c1.1,1.2,1.6,2.8,1.6,4.8v10.2c0,0.6-0.1,1.1-0.4,1.3s-0.7,0.4-1.3,0.4h-7.4c-0.6,0-1-0.1-1.3-0.4
			s-0.4-0.7-0.4-1.3v-7.3c0-0.7-0.1-1.2-0.4-1.6s-0.7-0.5-1.4-0.5h-6.7v9.4c0,0.6-0.1,1.1-0.4,1.3
			C277.2,119.3,276.8,119.5,276.1,119.5z M277.9,93.6v6.1h3.6c0.8,0,1.4-0.2,1.7-0.7s0.4-1,0.4-1.6v-1.6c0-0.6-0.1-1.2-0.4-1.6
			c-0.3-0.4-0.8-0.7-1.7-0.7L277.9,93.6L277.9,93.6z"/>
		<path class="st0" d="M310.3,122.1l5.7-39.7c0.1-0.6,0.2-1.1,0.5-1.3c0.2-0.3,0.7-0.4,1.3-0.4h6.9c0.6,0,1.1,0.1,1.4,0.4
			c0.3,0.3,0.4,0.7,0.4,1.3l-5.7,39.7c-0.1,0.6-0.2,1.1-0.5,1.3s-0.7,0.4-1.3,0.4H312c-0.6,0-1.1-0.1-1.4-0.4
			C310.3,123.1,310.2,122.7,310.3,122.1z"/>
		<path class="st0" d="M358.3,119.5h-16.1c-0.6,0-1-0.1-1.3-0.4c-0.3-0.3-0.4-0.7-0.4-1.3V86.7c0-0.6,0.1-1.1,0.4-1.3
			s0.7-0.4,1.3-0.4h16.1c4,0,6.9,0.8,8.8,2.4c1.9,1.6,2.9,4.1,2.9,7.4v15c0,3.3-1,5.8-2.9,7.4C365.2,118.7,362.3,119.5,358.3,119.5z
			 M351.3,94.1v16.3h5.7c0.8,0,1.3-0.2,1.7-0.6c0.4-0.4,0.5-1,0.5-1.8V96.4c0-0.8-0.2-1.4-0.5-1.8s-0.9-0.6-1.7-0.6H351.3z"/>
		<path class="st0" d="M399.9,119.5h-22.1c-0.6,0-1-0.1-1.3-0.4c-0.3-0.3-0.4-0.7-0.4-1.3V86.7c0-0.6,0.1-1.1,0.4-1.3
			s0.7-0.4,1.3-0.4h22.1c0.6,0,1,0.1,1.3,0.4c0.3,0.3,0.4,0.7,0.4,1.3v5.6c0,0.6-0.1,1.1-0.4,1.3s-0.7,0.4-1.3,0.4h-13.2v3.7h9.3
			c0.6,0,1,0.1,1.3,0.4c0.3,0.3,0.4,0.7,0.4,1.3v5.1c0,0.6-0.1,1.1-0.4,1.3s-0.7,0.4-1.3,0.4h-9.3v4.1h13.2c0.6,0,1,0.1,1.3,0.4
			c0.3,0.3,0.4,0.7,0.4,1.3v5.6c0,0.6-0.1,1.1-0.4,1.3C401,119.3,400.5,119.5,399.9,119.5z"/>
		<path class="st0" d="M423.2,119.5h-15.1c-0.6,0-1-0.1-1.3-0.4c-0.3-0.3-0.4-0.7-0.4-1.3v-5.6c0-0.6,0.1-1.1,0.4-1.3
			c0.3-0.3,0.7-0.4,1.3-0.4h12.8c0.4,0,0.7-0.1,0.9-0.4c0.2-0.3,0.3-0.6,0.3-1c0-0.5-0.1-0.9-0.3-1.2c-0.2-0.3-0.5-0.4-0.9-0.4
			l-7.1-1c-2.2-0.3-4-1.1-5.4-2.2c-1.4-1.2-2-3.1-2-5.8v-5c0-2.7,0.9-4.8,2.6-6.3c1.8-1.5,4.2-2.2,7.2-2.2h13.4c0.6,0,1,0.1,1.3,0.4
			c0.3,0.3,0.4,0.7,0.4,1.3v5.7c0,0.6-0.1,1.1-0.4,1.3c-0.3,0.3-0.7,0.4-1.3,0.4h-11.1c-0.4,0-0.7,0.1-1,0.4c-0.2,0.3-0.3,0.6-0.3,1
			c0,0.4,0.1,0.8,0.3,1.1s0.5,0.4,1,0.5l7.1,1c2.2,0.3,4,1.1,5.4,2.2c1.4,1.2,2,3.1,2,5.8v5c0,2.7-0.9,4.8-2.6,6.3
			C428.6,118.8,426.2,119.5,423.2,119.5z"/>
		<path class="st0" d="M439.2,119.5c-0.6,0-1-0.1-1.3-0.4c-0.3-0.3-0.4-0.7-0.4-1.3V112c0-0.6,0.1-1.1,0.4-1.3
			c0.3-0.3,0.7-0.4,1.3-0.4h4.7V94.2h-4.7c-0.6,0-1-0.1-1.3-0.4c-0.3-0.3-0.4-0.7-0.4-1.3v-5.8c0-0.6,0.1-1.1,0.4-1.3
			c0.3-0.3,0.7-0.4,1.3-0.4h20.3c0.6,0,1,0.1,1.3,0.4c0.3,0.3,0.4,0.7,0.4,1.3v5.8c0,0.6-0.1,1.1-0.4,1.3c-0.3,0.3-0.7,0.4-1.3,0.4
			h-4.6v16.1h4.6c0.6,0,1,0.1,1.3,0.4c0.3,0.3,0.4,0.7,0.4,1.3v5.7c0,0.6-0.1,1.1-0.4,1.3c-0.3,0.3-0.7,0.4-1.3,0.4L439.2,119.5
			L439.2,119.5z"/>
		<path class="st0" d="M493.3,119.5h-15c-4,0-6.9-0.8-8.8-2.4c-1.9-1.6-2.9-4.1-2.9-7.4v-15c0-3.3,1-5.8,2.9-7.4s4.9-2.4,8.8-2.4
			h11.9c0.6,0,1,0.1,1.3,0.4c0.3,0.3,0.4,0.7,0.4,1.3v5.8c0,0.6-0.1,1.1-0.4,1.3s-0.7,0.4-1.3,0.4h-9.9c-1,0-1.7,0.2-2.2,0.6
			s-0.7,1-0.7,1.8v11.5c0,0.8,0.2,1.4,0.5,1.8c0.4,0.4,0.9,0.6,1.6,0.6h4.6v-7.5c0-0.6,0.1-1.1,0.4-1.3c0.3-0.3,0.7-0.4,1.3-0.4h7.4
			c0.6,0,1,0.1,1.3,0.4c0.3,0.3,0.4,0.7,0.4,1.3v14.8c0,0.6-0.1,1.1-0.4,1.3C494.4,119.3,493.9,119.5,493.3,119.5z"/>
		<path class="st0" d="M509.7,119.5h-7.1c-0.6,0-1-0.1-1.3-0.4c-0.3-0.3-0.4-0.7-0.4-1.3V86.7c0-0.6,0.1-1.1,0.4-1.3
			s0.7-0.4,1.3-0.4h5c0.6,0,1.1,0.1,1.5,0.3s0.9,0.5,1.3,1l9.2,10.7V86.7c0-0.6,0.1-1.1,0.4-1.3s0.7-0.4,1.3-0.4h7.2
			c0.6,0,1,0.1,1.3,0.4c0.3,0.3,0.4,0.7,0.4,1.3v31.1c0,0.6-0.1,1.1-0.4,1.3s-0.7,0.4-1.3,0.4h-7.2c-0.6,0-1-0.1-1.3-0.4
			c-0.3-0.3-0.4-0.7-0.4-1.3v-5.9l-8.1-9.9v15.8c0,0.6-0.1,1.1-0.4,1.3C510.8,119.3,510.3,119.5,509.7,119.5z"/>
		<path class="st0" d="M560.6,119.5h-22.1c-0.6,0-1-0.1-1.3-0.4c-0.3-0.3-0.4-0.7-0.4-1.3V86.7c0-0.6,0.1-1.1,0.4-1.3
			s0.7-0.4,1.3-0.4h22.1c0.6,0,1,0.1,1.3,0.4c0.3,0.3,0.4,0.7,0.4,1.3v5.6c0,0.6-0.1,1.1-0.4,1.3s-0.7,0.4-1.3,0.4h-13.2v3.7h9.3
			c0.6,0,1,0.1,1.3,0.4c0.3,0.3,0.4,0.7,0.4,1.3v5.1c0,0.6-0.1,1.1-0.4,1.3s-0.7,0.4-1.3,0.4h-9.3v4.1h13.2c0.6,0,1,0.1,1.3,0.4
			c0.3,0.3,0.4,0.7,0.4,1.3v5.6c0,0.6-0.1,1.1-0.4,1.3C561.6,119.3,561.2,119.5,560.6,119.5z"/>
		<path class="st0" d="M577,119.5h-7.3c-0.6,0-1-0.1-1.3-0.4c-0.3-0.3-0.4-0.7-0.4-1.3V86.7c0-0.6,0.1-1.1,0.4-1.3s0.7-0.4,1.3-0.4
			h15.9c3.6,0,6,0.7,7.4,2.2c1.3,1.5,2,3.4,2,5.8v2.2c0,1.3-0.2,2.5-0.6,3.4c-0.4,0.9-1.1,1.6-2.1,2c1.7,0.2,3.1,0.9,4.2,2.1
			c1.1,1.2,1.6,2.8,1.6,4.8v10.2c0,0.6-0.1,1.1-0.4,1.3s-0.7,0.4-1.3,0.4h-7.4c-0.6,0-1-0.1-1.3-0.4c-0.3-0.3-0.4-0.7-0.4-1.3v-7.3
			c0-0.7-0.1-1.2-0.4-1.6s-0.7-0.5-1.4-0.5h-6.7v9.4c0,0.6-0.1,1.1-0.4,1.3C578,119.3,577.6,119.5,577,119.5z M578.7,93.6v6.1h3.6
			c0.8,0,1.4-0.2,1.7-0.7s0.4-1,0.4-1.6v-1.6c0-0.6-0.1-1.2-0.4-1.6s-0.8-0.7-1.7-0.7L578.7,93.6L578.7,93.6z"/>
	</g>
</g>
</svg>
